<svg width="56" height="56" viewBox="0 0 56 56" fill="none" xmlns="http://www.w3.org/2000/svg">
<path d="M24.6504 5.83594C36.6227 3.87848 45.4499 11.0442 46.8496 12.2666L47.0293 12.4268V12.4277C54.5431 19.4331 54.0216 28.0077 53.9434 30.4502L53.9414 30.4775C53.8753 31.2306 53.8068 34.1083 52.7637 37.333C51.7187 40.5633 49.6802 44.1975 45.6416 46.459C44.5241 47.0848 41.9841 48.9244 36.667 49.6836C26.9817 51.0668 20.2057 50.6529 14.9111 48.7393C12.5187 47.8751 6.52147 45.246 3.59277 39.3467C1.27201 34.6706 2.06719 30.3306 2.5752 27.5342L2.72559 26.7793C3.17829 24.7037 4.40826 20.5206 7.84668 16.2559C9.73306 13.9161 14.9629 7.42053 24.6504 5.83691V5.83594Z" fill="#F8E2C6" stroke="#AA9070"/>
<path d="M28.0879 36.5C28.6679 36.5 29.2421 36.5058 29.7314 36.5664C30.2463 36.6302 30.5485 36.7427 30.6816 36.8662C30.8197 36.9943 30.913 37.189 30.9658 37.499C31.0198 37.8167 31.0215 38.1908 31.0215 38.6396C31.0215 38.6946 30.9999 38.8775 30.9414 39.2002C30.8861 39.5057 30.8042 39.9006 30.7012 40.3545C30.495 41.2622 30.2056 42.3938 29.8711 43.4971C29.5352 44.6048 29.1595 45.6656 28.7861 46.4414C28.5983 46.8317 28.4224 47.1256 28.2666 47.3145C28.1744 47.4262 28.1134 47.4713 28.085 47.4893C28.0551 47.4709 27.9931 47.4248 27.8984 47.3135C27.7393 47.1262 27.5581 46.8347 27.3643 46.4482C26.9791 45.6801 26.5884 44.6284 26.2363 43.5273C25.8856 42.4305 25.5786 41.3023 25.3604 40.3906C25.2513 39.9351 25.1651 39.5368 25.1064 39.2256C25.0447 38.8983 25.0215 38.7059 25.0215 38.6396C25.0213 37.7405 25.0278 37.3057 25.5225 36.8467C25.6543 36.7245 25.9475 36.6154 26.4541 36.5566C26.9373 36.5006 27.5038 36.5 28.0879 36.5Z" fill="#AA9070" stroke="#AA9070"/>
<path d="M31.5029 27.5352C32.1097 27.4774 32.8072 27.49 33.4824 27.582C34.3459 27.6998 34.9282 27.9895 35.5234 28.3623C36.113 28.7315 36.7817 29.2323 37.7002 29.6523C38.9624 30.2295 39.3481 30.6121 40.8535 30.9736C41.5914 31.1508 42.4117 31.3039 43.043 31.4121C43.3592 31.4663 43.6302 31.5093 43.8223 31.5391C43.9183 31.554 43.9953 31.5664 44.0479 31.5742C44.074 31.5781 44.0946 31.581 44.1084 31.583C44.1152 31.584 44.1204 31.5844 44.124 31.585C44.1257 31.5852 44.127 31.5858 44.1279 31.5859H44.1299L44.1592 31.5898L44.1875 31.5908H44.1934C44.1971 31.5909 44.2026 31.5916 44.21 31.5918C44.2253 31.5923 44.2489 31.5927 44.2783 31.5938C44.3371 31.5959 44.4216 31.5992 44.5234 31.6045C44.7283 31.6151 45.0001 31.6331 45.2725 31.6611C45.4571 31.6801 45.6334 31.7055 45.7861 31.7324C45.681 31.8375 45.5503 31.9581 45.3955 32.0879C44.9093 32.4957 44.2508 32.9577 43.627 33.3164C42.3697 34.0392 40.1597 34.9143 38.7656 35.1553C37.3428 35.4012 35.4245 35.5 33.5508 35.5C32.1285 35.5 31.2285 35.4139 30.0898 34.75C29.6046 34.4671 29.2807 34.271 29.0166 34.0352C28.7664 33.8116 28.5573 33.5399 28.3506 33.0928C28.1005 32.5519 28.01 32.0907 28.0225 31.6328C28.0352 31.1658 28.1561 30.6734 28.3691 30.0664C28.5701 29.4939 28.7708 29.0953 29.0312 28.7705C29.2902 28.4477 29.6304 28.1699 30.1484 27.8721C30.4097 27.7219 30.8821 27.5942 31.5029 27.5352Z" fill="#AA9070" stroke="#AA9070"/>
<path d="M24.748 27.5352C24.1782 27.4779 23.5226 27.4896 22.8877 27.5811C22.0804 27.6974 21.5354 27.9837 20.9736 28.3555C20.4184 28.7229 19.7814 29.226 18.9092 29.6475C17.7222 30.221 17.3477 30.6097 15.917 30.9727C15.2148 31.1508 14.4059 31.3039 13.7783 31.4121C13.4633 31.4664 13.1913 31.5102 12.998 31.54C12.9016 31.5549 12.8246 31.5664 12.7715 31.5742C12.7449 31.5781 12.724 31.581 12.71 31.583C12.7033 31.584 12.698 31.5844 12.6943 31.585C12.6925 31.5852 12.6904 31.5858 12.6895 31.5859H12.6885L12.6182 31.0908L12.6875 31.5859L12.6602 31.5898L12.6318 31.5908H12.6279C12.6246 31.5909 12.6191 31.5916 12.6123 31.5918C12.5986 31.5923 12.5779 31.5927 12.5518 31.5938C12.4991 31.5959 12.4233 31.5992 12.332 31.6045C12.1484 31.615 11.9054 31.6325 11.6621 31.6602C11.5083 31.6777 11.3621 31.7007 11.2344 31.7246C11.3373 31.8333 11.4669 31.9596 11.6221 32.0957C12.0866 32.5032 12.715 32.964 13.3047 33.3223C13.8792 33.6713 14.8257 34.0954 15.75 34.4551C16.6808 34.8173 17.5237 35.0892 17.8906 35.1562C19.7681 35.4991 21.2262 35.5 22.7969 35.5H22.8164C24.3515 35.5 25.2347 35.3303 26.167 34.7559C26.6924 34.4321 26.9632 34.2432 27.1611 34.0332C27.3505 33.8322 27.4961 33.586 27.708 33.1016C27.9452 32.5592 28.0323 32.0952 28.0205 31.6328C28.0084 31.1617 27.8932 30.6663 27.6914 30.0586C27.5007 29.4844 27.31 29.0847 27.0635 28.7598C26.8192 28.438 26.499 28.1622 26.0117 27.8662C25.7716 27.7204 25.332 27.5939 24.748 27.5352Z" fill="#AA9070" stroke="#AA9070"/>
<path d="M19.9893 18.2725C23.29 18.2725 26.0255 20.6955 26.5146 23.8594H27.8633V26.1455H26.4697C25.8775 29.1845 23.2015 31.4785 19.9893 31.4785C16.3431 31.4781 13.387 28.5221 13.3867 24.876C13.3869 21.2297 16.3431 18.2729 19.9893 18.2725ZM20.1172 20.0508C17.5229 20.0511 15.4201 22.1546 15.4199 24.749C15.4201 27.3433 17.5229 29.446 20.1172 29.4463C22.7118 29.4463 24.8152 27.3436 24.8154 24.749C24.8153 22.1544 22.7118 20.0508 20.1172 20.0508Z" fill="#AA9070"/>
<path d="M35.7354 18.2725C32.4346 18.2725 29.7 20.6955 29.2109 23.8594H27.8633V26.1455H29.2559C29.8479 29.1846 32.5231 31.4785 35.7354 31.4785C39.3817 31.4784 42.3376 28.5223 42.3379 24.876C42.3377 21.2296 39.3818 18.2726 35.7354 18.2725ZM35.6084 20.0508C38.203 20.0508 40.3065 22.1545 40.3066 24.749C40.3064 27.3435 38.2029 29.4463 35.6084 29.4463C33.0138 29.4463 30.9104 27.3435 30.9102 24.749C30.9103 22.1545 33.0138 20.0508 35.6084 20.0508Z" fill="#AA9070"/>
<ellipse cx="18.8722" cy="21.4122" rx="2.14893" ry="1.12831" transform="rotate(-21.1395 18.8722 21.4122)" fill="url(#paint0_linear_6216_40796)" fill-opacity="0.5"/>
<ellipse cx="34.3535" cy="21.4222" rx="2.15" ry="1.12802" transform="rotate(-21.1395 34.3535 21.4222)" fill="url(#paint1_linear_6216_40796)" fill-opacity="0.5"/>
<defs>
<linearGradient id="paint0_linear_6216_40796" x1="18.8722" y1="20.2838" x2="18.8722" y2="22.5405" gradientUnits="userSpaceOnUse">
<stop stop-color="#FFEEDA"/>
<stop offset="1" stop-color="#E4D0B7"/>
</linearGradient>
<linearGradient id="paint1_linear_6216_40796" x1="34.3535" y1="20.2942" x2="34.3535" y2="22.5503" gradientUnits="userSpaceOnUse">
<stop stop-color="#FFEEDA"/>
<stop offset="1" stop-color="#E4D0B7"/>
</linearGradient>
</defs>
</svg>
